
        <svg xmlns="http://www.w3.org/2000/svg" xmlns:xlink="http://www.w3.org/1999/xlink" version="1.1" width="3179.0474849762586" height="2631.9980291510096" viewBox="0 0 3179.0474849762586 2631.9980291510096">
			
			<g transform="scale(8.952374248812959) translate(10, 10)">
				<defs id="SvgjsDefs2305"><linearGradient id="SvgjsLinearGradient2314"><stop id="SvgjsStop2315" stop-color="#2d388a" offset="0"/><stop id="SvgjsStop2316" stop-color="#00aeef" offset="1"/></linearGradient></defs><g id="SvgjsG2306" featureKey="rootContainer" transform="matrix(1,0,0,1,0,0)" fill="#000"><path xmlns="http://www.w3.org/2000/svg" fill-rule="evenodd" d="M5,65 L167.5,0 L330, 65 L167.5, 10 z M5,194 L167.5,274 L330,189 L167.5, 264 z"/></g><g id="SvgjsG2307" featureKey="symbolFeature-0" transform="matrix(1.0139273405075073,0,0,1.0139273405075073,136.91643608401657,83.38088822493539)" fill="#000"><g xmlns="http://www.w3.org/2000/svg"><path d="M53,44.0318069h-3.0699463V21.3518143c0-1.6400146-1.0700073-3.0300293-2.5500488-3.5100098   C47.2200317,18.4918289,47,19.1217728,46.7200317,19.7318192c0.7000122,0.1999512,1.210022,0.8599854,1.210022,1.6199951   v22.6799927H34.0599976c-0.4599609,0-0.8599854,0.3200073-0.9699707,0.7600098l-0.4899902,1.9500122h-5.2000122   l-0.4899902-1.9500122c-0.1099854-0.4400024-0.5100098-0.7600098-0.9700317-0.7600098H12.0500488V21.3518143   c0-0.9299927,0.7699585-1.7000122,1.7099609-1.7000122h10.7200317l2-2H13.7600098   c-2.039978,0-3.7099609,1.6599731-3.7099609,3.7000122v22.6799927H7c-0.5499878,0-1,0.4500122-1,1   c0,4.6599731,3.7800293,8.4400024,8.4400024,8.4400024h31.1199951C50.210022,53.4718094,54,49.6917801,54,45.0318069   C54,44.4818192,53.5500488,44.0318069,53,44.0318069z"/><path d="M18.9500122,28.0017776c-1.4500122,1.460022-1.4500122,3.8300171,0,5.2800293   c0.7300415,0.7299805,1.6799927,1.0899658,2.6400146,1.0899658c0.9500122,0,1.9099731-0.3599854,2.6300049-1.0899658   l9.8200073-9.8099976c0.9099731,0.3300171,1.8900146,0.5,2.8800049,0.5h0.0599976   c1.1699829,0,2.289978-0.2200317,3.3399658-0.6600342c1.0400391-0.4299927,2-1.0599976,2.8200073-1.8899536   c2.4800415-2.4800415,3.2399902-6.1799936,1.9299927-9.4400034c-0.1199951-0.3099976-0.3999634-0.5400391-0.7299805-0.6100464   c-0.3300171-0.0699463-0.6699829,0.0300293-0.9000244,0.2700195l-3.8599854,3.8599854   c-0.7600098,0.750001-2.0999756,0.750001-2.8499756,0c-0.3800049-0.3800049-0.5900269-0.8800049-0.5900269-1.4199829   s0.210022-1.0499878,0.5900269-1.4299927l3.8599854-3.8599854c0.2399902-0.2300415,0.3400269-0.5800171,0.2700195-0.9100337   C40.7900391,7.5617747,40.5599976,7.2818065,40.25,7.1618114c-3.3399658-1.3300171-7.0899658-0.5300293-9.5799561,2.0599971   c-2.3200073,2.4299927-2.9500122,5.9400024-1.8900146,8.9599619L18.9500122,28.0017776z"/><path d="M45.12323,37.3592606c0-0.5527344-0.4472656-1-1-1h-28.25c-0.5522461,0-1,0.4472656-1,1s0.4477539,1,1,1h28.25   C44.6759644,38.3592606,45.12323,37.9119949,45.12323,37.3592606z"/><path d="M15.87323,39.7342606c-0.5522461,0-1,0.4472656-1,1s0.4477539,1,1,1h18.375c0.5527344,0,1-0.4472656,1-1s-0.4472656-1-1-1   H15.87323z"/></g></g><g id="SvgjsG2308" featureKey="nameLeftFeature-0" transform="matrix(1.818638801574707,0,0,1.818638801574707,-2.182366207298865,147.52464012369853)" fill="#000"><path d="M15.42 6 l0 14 l-0.58 0 l0 -12.7 l-6.34 12.7 l-0.38 0 l-6.34 -12.72 l0 12.72 l-0.58 0 l0 -14 l0.58 0 l6.54 13.1 l6.52 -13.1 l0.58 0 z M18.400000000000002 6 l0 14 l-0.58 0 l0 -14 l0.58 0 z M30.060000000000002 20 l-6.36 -6.98 l-2.32 2.44 l0 4.54 l-0.58 0 l0 -14 l0.58 0 l0 8.68 l8.24 -8.68 l0.76 0 l-6.3 6.64 l6.72 7.36 l-0.74 0 z M33.080000000000005 19.42 l7.28 0 l0 0.58 l-7.68 0 l-0.18 0 l0 -14 l0.58 0 l7.1 0 l0 0.58 l-7.1 0 l0 6.1 l5.66 0 l0 0.58 l-5.66 0 l0 6.16 z M57.10000000000001 6 l0 0.58 l-4.22 0 l0 13.42 l-0.58 0 l0 -13.42 l-4.24 0 l0 -0.58 l9.04 0 z M59.68000000000001 19.42 l7.28 0 l0 0.58 l-7.68 0 l-0.18 0 l0 -14 l0.58 0 l7.1 0 l0 0.58 l-7.1 0 l0 6.1 l5.66 0 l0 0.58 l-5.66 0 l0 6.16 z M80.08000000000001 20 l-1.78 -3.98 l-8.04 0 l-1.78 3.98 l-0.62 0 l6.26 -14 l0.3 0 l6.28 14 l-0.62 0 z M70.50000000000001 15.46 l7.56 0 l-3.78 -8.46 z M93.68 18.5 c-1.3 1.08 -2.9 1.7 -4.62 1.7 c-3.44 0 -7.06 -2.98 -7.06 -7.2 s3.62 -7.2 7.06 -7.2 c1.7 0 3.28 0.6 4.58 1.66 l-0.4 0.46 c-1.18 -1 -2.64 -1.52 -4.12 -1.52 c-3.16 0 -6.54 2.68 -6.54 6.6 s3.38 6.6 6.54 6.6 c1.48 0 2.96 -0.52 4.12 -1.5 z M104.54 6 l0.58 0 l0 14 l-0.58 0 l0 -6.52 l-8.38 0 l0 6.52 l-0.58 0 l0 -14 l0.58 0 l0 6.9 l8.38 0 l0 -6.9 z M108.10000000000001 19.42 l7.28 0 l0 0.58 l-7.68 0 l-0.18 0 l0 -14 l0.58 0 l7.1 0 l0 0.58 l-7.1 0 l0 6.1 l5.66 0 l0 0.58 l-5.66 0 l0 6.16 z M121.52 5.76 c1.96 0 3.58 1.34 4.08 2.98 l-0.48 0.18 c-0.56 -1.48 -1.82 -2.6 -3.6 -2.6 c-2 0 -3.36 1.16 -3.36 2.74 c0 1.42 0.96 2.4 2.84 3.14 l1.06 0.4 c2.02 0.82 3.9 1.64 3.9 4.12 c0 2.04 -1.98 3.58 -4.34 3.58 c-2.24 0 -4.2 -1.38 -4.64 -3.42 l0.56 -0.18 c0.48 1.88 2.1 3.04 4.08 3.04 s3.76 -1.26 3.76 -3.04 c0 -2.1 -1.58 -2.84 -3.34 -3.52 l-1.2 -0.48 c-2.18 -0.86 -3.26 -2.02 -3.26 -3.62 c0 -1.86 1.54 -3.32 3.94 -3.32 z"/></g><g id="SvgjsG2309" featureKey="nameRightFeature-0" transform="matrix(1.836320161819458,0,0,1.836320161819458,234.51302074299184,147.34934091291927)" fill="#000"><path d="M16.7 6 l0 2.68 l-3.48 0 l0 11.32 l-2.92 0 l0 -11.32 l-3.5 0 l0 -2.68 l9.9 0 z M21.62 17.32 l5.92 0 l0 2.68 l-6.32 0 l-2.52 0 l0 -14 l2.92 0 l5.74 0 l0 2.68 l-5.74 0 l0 2.96 l4.34 0 l0 2.64 l-4.34 0 l0 3.04 z M41.4 18.5 c-1.24 1.12 -2.9 1.7 -4.76 1.7 c-3.92 0 -7.3 -2.94 -7.3 -7.2 s3.38 -7.2 7.3 -7.2 c1.84 0 3.48 0.6 4.68 1.66 l-1.76 1.98 c-0.74 -0.52 -1.74 -0.9 -2.76 -0.9 c-2.52 0 -4.42 1.86 -4.42 4.46 s1.9 4.46 4.42 4.46 c1.06 0 2.1 -0.4 2.86 -1 z M51.85999999999999 6 l2.92 0 l0 14 l-2.92 0 l0 -5.66 l-5.64 0 l0 5.66 l-2.92 0 l0 -14 l2.92 0 l0 5.66 l5.64 0 l0 -5.66 z"/></g>
			</g>
		</svg>
	